<svg height="512pt" viewBox="0 -9 512.00027 512" width="512pt" xmlns="http://www.w3.org/2000/svg"><path d="m496.421875 187.652344-139.699219-126.597656v-19.15625c0-14.824219 12.0625-26.886719 26.886719-26.886719s26.886719 12.0625 26.886719 26.886719v48.597656c0 4.144531 3.359375 7.5 7.5 7.5s7.5-3.355469 7.5-7.5v-48.597656c0-23.097657-18.789063-41.8867192-41.886719-41.8867192-44.199219 0-41.886719 47.4492192-41.886719 47.4492192l-27.460937-24.886719c-33.214844-30.097657-83.308594-30.101563-116.523438 0l-182.160156 165.078125c-19.402344 17.582031-20.882813 47.671875-3.300781 67.074218 9.359375 10.328126 26.8125 21.519532 53.902344 11.753907v168c0 32.347656 26.3125 58.660156 58.660156 58.660156h262.320312c32.347656 0 58.660156-26.3125 58.660156-58.660156v-168.445313c22.292969 9.152344 45.054688-1.542968 53.902344-11.308594 17.582032-19.402343 16.101563-49.492187-3.300781-67.074218zm-7.8125 57c-5.304687 5.851562-26.898437 17.691406-46.027344 2.128906l-181.546875-164.515625c-2.855468-2.589844-7.214844-2.589844-10.070312 0l-75.707032 68.605469c-3.070312 2.78125-3.304687 7.527344-.523437 10.597656 2.78125 3.066406 7.527344 3.300781 10.59375.519531l70.671875-64.042969 174.820312 158.421876v178.113281c0 24.074219-19.585937 43.660156-43.65625 43.660156h-198.945312v-148.675781c0-16.765625 13.644531-30.40625 30.410156-30.40625h74.742188c16.769531 0 30.410156 13.640625 30.410156 30.40625v124.625c0 4.140625 3.355469 7.5 7.5 7.5 4.140625 0 7.5-3.359375 7.5-7.5v-124.625c0-25.035156-20.371094-45.40625-45.410156-45.40625h-74.742188c-25.039062 0-45.410156 20.371094-45.410156 45.40625v148.675781h-48.378906c-24.074219 0-43.660156-19.585937-43.660156-43.65625v-178.117187l78.800781-71.410157c3.070312-2.78125 3.304687-7.523437.523437-10.59375-2.78125-3.070312-7.527344-3.304687-10.597656-.523437l-80.628906 73.070312c-13.273438 12.027344-33.855469 11.015625-45.882813-2.257812-12.03125-13.273438-11.015625-33.855469 2.253907-45.886719l182.164062-165.074219c27.472656-24.894531 68.90625-24.894531 96.375 0l182.164062 165.078125c13.269532 12.027344 14.285157 32.609375 2.257813 45.882813zm0 0"/></svg>